<svg width="17" height="17" viewBox="0 0 17 17" fill="none" xmlns="http://www.w3.org/2000/svg">
<g clip-path="url(#clip0_31_1327)">
<path d="M1.53836 9.15975C1.48282 9.01011 1.48282 8.84551 1.53836 8.69587C2.07937 7.38409 2.99768 6.26249 4.1769 5.47325C5.35612 4.68402 6.74312 4.2627 8.16208 4.2627C9.58104 4.2627 10.968 4.68402 12.1473 5.47325C13.3265 6.26249 14.2448 7.38409 14.7858 8.69587C14.8413 8.84551 14.8413 9.01011 14.7858 9.15975C14.2448 10.4715 13.3265 11.5931 12.1473 12.3824C10.968 13.1716 9.58104 13.5929 8.16208 13.5929C6.74312 13.5929 5.35612 13.1716 4.1769 12.3824C2.99768 11.5931 2.07937 10.4715 1.53836 9.15975Z" stroke="#00AAFE" stroke-width="1.33301" stroke-linecap="round" stroke-linejoin="round"/>
<path d="M8.16211 10.9272C9.26641 10.9272 10.1616 10.032 10.1616 8.92773C10.1616 7.82343 9.26641 6.92822 8.16211 6.92822C7.05781 6.92822 6.1626 7.82343 6.1626 8.92773C6.1626 10.032 7.05781 10.9272 8.16211 10.9272Z" stroke="#00AAFE" stroke-width="1.33301" stroke-linecap="round" stroke-linejoin="round"/>
</g>
<defs>
<clipPath id="clip0_31_1327">
<rect width="15.9961" height="15.9961" fill="white" transform="translate(0.164062 0.929688)"/>
</clipPath>
</defs>
</svg>
