<svg width="16" height="17" viewBox="0 0 16 17" fill="none" xmlns="http://www.w3.org/2000/svg">
<g clip-path="url(#clip0_31_1318)">
<path d="M7.99414 15.5928C11.6751 15.5928 14.6592 12.6087 14.6592 8.92773C14.6592 5.24673 11.6751 2.2627 7.99414 2.2627C4.31314 2.2627 1.3291 5.24673 1.3291 8.92773C1.3291 12.6087 4.31314 15.5928 7.99414 15.5928Z" stroke="#00AAFE" stroke-width="1.33301" stroke-linecap="round" stroke-linejoin="round"/>
<path d="M7.99414 12.9268C10.2027 12.9268 11.9932 11.1363 11.9932 8.92773C11.9932 6.71913 10.2027 4.92871 7.99414 4.92871C5.78554 4.92871 3.99512 6.71913 3.99512 8.92773C3.99512 11.1363 5.78554 12.9268 7.99414 12.9268Z" stroke="#00AAFE" stroke-width="1.33301" stroke-linecap="round" stroke-linejoin="round"/>
<path d="M7.99414 10.2607C8.73034 10.2607 9.32715 9.66393 9.32715 8.92773C9.32715 8.19153 8.73034 7.59473 7.99414 7.59473C7.25794 7.59473 6.66113 8.19153 6.66113 8.92773C6.66113 9.66393 7.25794 10.2607 7.99414 10.2607Z" stroke="#00AAFE" stroke-width="1.33301" stroke-linecap="round" stroke-linejoin="round"/>
</g>
<defs>
<clipPath id="clip0_31_1318">
<rect width="15.9961" height="15.9961" fill="white" transform="translate(-0.00390625 0.929688)"/>
</clipPath>
</defs>
</svg>
