<svg width="14" height="15" viewBox="0 0 14 15" fill="none" xmlns="http://www.w3.org/2000/svg">
<g clip-path="url(#clip0_31_1307)">
<path d="M9.33594 12.4443V11.2783C9.33594 10.6598 9.09024 10.0667 8.6529 9.62933C8.21556 9.19198 7.6224 8.94629 7.00391 8.94629H3.50586C2.88737 8.94629 2.2942 9.19198 1.85686 9.62933C1.41952 10.0667 1.17383 10.6598 1.17383 11.2783V12.4443" stroke="#00AAFE" stroke-width="1.16602" stroke-linecap="round" stroke-linejoin="round"/>
<path d="M9.33594 2.0249C9.83602 2.15455 10.2789 2.44657 10.595 2.85514C10.9112 3.26371 11.0827 3.7657 11.0827 4.28231C11.0827 4.79892 10.9112 5.3009 10.595 5.70948C10.2789 6.11805 9.83602 6.41007 9.33594 6.53971" stroke="#00AAFE" stroke-width="1.16602" stroke-linecap="round" stroke-linejoin="round"/>
<path d="M12.834 12.4442V11.2782C12.8336 10.7615 12.6616 10.2596 12.3451 9.85119C12.0285 9.44282 11.5853 9.15115 11.085 9.02197" stroke="#00AAFE" stroke-width="1.16602" stroke-linecap="round" stroke-linejoin="round"/>
<path d="M5.25488 6.61426C6.54283 6.61426 7.58691 5.57017 7.58691 4.28223C7.58691 2.99428 6.54283 1.9502 5.25488 1.9502C3.96694 1.9502 2.92285 2.99428 2.92285 4.28223C2.92285 5.57017 3.96694 6.61426 5.25488 6.61426Z" stroke="#00AAFE" stroke-width="1.16602" stroke-linecap="round" stroke-linejoin="round"/>
</g>
<defs>
<clipPath id="clip0_31_1307">
<rect width="13.9922" height="13.9922" fill="white" transform="translate(0.0078125 0.201172)"/>
</clipPath>
</defs>
</svg>
