<svg width="18" height="18" viewBox="0 0 18 18" fill="none" xmlns="http://www.w3.org/2000/svg">
<path d="M12.1667 15.3281V13.8698C12.1667 13.0962 11.8594 12.3544 11.3124 11.8074C10.7654 11.2604 10.0235 10.9531 9.24999 10.9531H4.87499C4.10145 10.9531 3.35958 11.2604 2.8126 11.8074C2.26562 12.3544 1.95833 13.0962 1.95833 13.8698V15.3281" stroke="#FFB82D" stroke-width="1.45833" stroke-linecap="round" stroke-linejoin="round"/>
<path d="M12.1667 2.29639C12.7921 2.45853 13.346 2.82377 13.7414 3.33477C14.1369 3.84576 14.3514 4.4736 14.3514 5.11972C14.3514 5.76584 14.1369 6.39368 13.7414 6.90467C13.346 7.41567 12.7921 7.78091 12.1667 7.94305" stroke="#FFB82D" stroke-width="1.45833" stroke-linecap="round" stroke-linejoin="round"/>
<path d="M16.5417 15.3281V13.8697C16.5412 13.2235 16.3261 12.5957 15.9302 12.085C15.5342 11.5742 14.9799 11.2094 14.3542 11.0479" stroke="#FFB82D" stroke-width="1.45833" stroke-linecap="round" stroke-linejoin="round"/>
<path d="M7.06249 8.03646C8.67333 8.03646 9.97916 6.73062 9.97916 5.11979C9.97916 3.50896 8.67333 2.20312 7.06249 2.20312C5.45166 2.20312 4.14583 3.50896 4.14583 5.11979C4.14583 6.73062 5.45166 8.03646 7.06249 8.03646Z" stroke="#FFB82D" stroke-width="1.45833" stroke-linecap="round" stroke-linejoin="round"/>
</svg>
