<svg width="21" height="22" viewBox="0 0 21 22" fill="none" xmlns="http://www.w3.org/2000/svg">
<path d="M14 18.75V17C14 16.0717 13.6313 15.1815 12.9749 14.5251C12.3185 13.8687 11.4283 13.5 10.5 13.5H5.25C4.32174 13.5 3.4315 13.8687 2.77513 14.5251C2.11875 15.1815 1.75 16.0717 1.75 17V18.75" stroke="#FB2C36" stroke-width="1.75" stroke-linecap="round" stroke-linejoin="round"/>
<path d="M14 3.11206C14.7505 3.30663 15.4152 3.74492 15.8897 4.35812C16.3642 4.97131 16.6217 5.72471 16.6217 6.50006C16.6217 7.27541 16.3642 8.02881 15.8897 8.64201C15.4152 9.2552 14.7505 9.69349 14 9.88806" stroke="#FB2C36" stroke-width="1.75" stroke-linecap="round" stroke-linejoin="round"/>
<path d="M19.25 18.75V17C19.2494 16.2245 18.9913 15.4712 18.5162 14.8583C18.0411 14.2454 17.3759 13.8076 16.625 13.6138" stroke="#FB2C36" stroke-width="1.75" stroke-linecap="round" stroke-linejoin="round"/>
<path d="M7.875 10C9.808 10 11.375 8.433 11.375 6.5C11.375 4.567 9.808 3 7.875 3C5.942 3 4.375 4.567 4.375 6.5C4.375 8.433 5.942 10 7.875 10Z" stroke="#FB2C36" stroke-width="1.75" stroke-linecap="round" stroke-linejoin="round"/>
</svg>
